<?xml version="1.0" encoding="UTF-8"?>
<svg xmlns="http://www.w3.org/2000/svg" xmlns:xlink="http://www.w3.org/1999/xlink" width="375pt" height="374.999991pt" viewBox="0 0 375 374.999991" version="1.2">
<defs>
<clipPath id="clip1">
  <path d="M 0 26.25 L 375 26.25 L 375 348.75 L 0 348.75 Z M 0 26.25 "/>
</clipPath>
</defs>
<g id="surface1">
<path style=" stroke:none;fill-rule:nonzero;fill:rgb(92.939758%,22.349548%,27.839661%);fill-opacity:1;" d="M 205.996094 74.488281 L 241.046875 54.25 L 238.671875 50.132812 L 235.601562 46.503906 L 193.328125 82.273438 C 191.441406 83.867188 191.089844 86.617188 192.507812 88.636719 C 193.925781 90.652344 196.636719 91.253906 198.773438 90.019531 L 211.585938 82.621094 L 196.988281 93.59375 C 194.984375 95.105469 194.492188 97.921875 195.878906 100.015625 C 197.265625 102.113281 200.046875 102.765625 202.222656 101.511719 L 288.820312 51.511719 L 286.445312 47.398438 L 283.75 43.480469 L 188.265625 109.195312 C 186.164062 110.640625 185.582031 113.492188 186.941406 115.648438 C 188.304688 117.808594 191.128906 118.507812 193.339844 117.230469 L 304.308594 53.160156 C 306.585938 51.847656 307.363281 48.941406 306.050781 46.664062 C 304.738281 44.390625 301.832031 43.613281 299.558594 44.925781 L 188.585938 108.992188 L 190.960938 113.113281 L 193.65625 117.027344 L 289.140625 51.3125 C 291.242188 49.863281 291.828125 47.015625 290.464844 44.855469 C 289.101562 42.699219 286.28125 42.003906 284.066406 43.277344 L 265.433594 54.035156 L 280.027344 43.066406 C 282.035156 41.558594 282.519531 38.738281 281.140625 36.644531 C 279.753906 34.550781 276.96875 33.894531 274.792969 35.148438 L 239.984375 55.246094 L 241.742188 53.761719 C 243.625 52.167969 243.976562 49.417969 242.5625 47.398438 C 241.140625 45.382812 238.429688 44.78125 236.292969 46.015625 L 201.238281 66.253906 C 198.964844 67.570312 198.183594 70.472656 199.5 72.75 C 200.8125 75.023438 203.71875 75.800781 205.996094 74.488281 "/>
<g clip-path="url(#clip1)" clip-rule="nonzero">
<path style=" stroke:none;fill-rule:nonzero;fill:rgb(92.939758%,22.349548%,27.839661%);fill-opacity:1;" d="M 36.550781 59.382812 L 68.976562 40.664062 L 66.601562 36.546875 L 63.558594 32.894531 L 25.078125 64.914062 C 23.179688 66.492188 22.808594 69.265625 24.21875 71.289062 C 25.628906 73.3125 28.359375 73.917969 30.496094 72.683594 L 94.382812 35.800781 L 92.003906 31.683594 L 89.152344 27.882812 L 14.125 84.167969 C 12.117188 85.675781 11.628906 88.496094 13.007812 90.589844 C 14.394531 92.683594 17.183594 93.34375 19.355469 92.085938 L 116.597656 35.941406 L 114.222656 31.828125 L 111.558594 27.886719 L 15.863281 92.613281 C 13.746094 94.042969 13.136719 96.910156 14.496094 99.074219 C 15.847656 101.238281 18.6875 101.945312 20.902344 100.667969 L 113.0625 47.460938 L 110.683594 43.339844 L 107.992188 39.421875 L 13.785156 104.15625 C 11.683594 105.597656 11.09375 108.449219 12.457031 110.605469 C 13.820312 112.765625 16.640625 113.464844 18.851562 112.1875 L 26.179688 107.960938 L 15.675781 115.167969 C 13.570312 116.609375 12.980469 119.464844 14.34375 121.621094 C 15.703125 123.78125 18.527344 124.480469 20.742188 123.203125 L 152.953125 46.871094 L 150.574219 42.753906 L 148.035156 38.738281 L 2.910156 130.464844 C 0.730469 131.84375 0.046875 134.730469 1.382812 136.945312 C 2.71875 139.152344 5.589844 139.890625 7.824219 138.597656 L 31.632812 124.855469 L 8.625 140.375 C 6.496094 141.8125 5.890625 144.660156 7.253906 146.839844 C 8.613281 149.015625 11.4375 149.722656 13.664062 148.4375 L 170.472656 57.898438 L 168.097656 53.78125 L 165.515625 49.792969 L 16.570312 146.269531 C 14.40625 147.671875 13.753906 150.539062 15.101562 152.738281 C 16.449219 154.941406 19.296875 155.667969 21.535156 154.375 L 38.234375 144.734375 L 12.558594 161.898438 C 10.425781 163.328125 9.808594 166.183594 11.164062 168.363281 C 12.519531 170.542969 15.355469 171.25 17.578125 169.96875 L 32.574219 161.3125 L 23.679688 167.109375 C 21.515625 168.519531 20.875 171.375 22.222656 173.578125 C 23.574219 175.777344 26.417969 176.496094 28.652344 175.207031 L 39.449219 168.972656 L 19.414062 182.21875 C 17.273438 183.636719 16.640625 186.503906 17.992188 188.6875 C 19.34375 190.871094 22.1875 191.585938 24.414062 190.304688 L 175.167969 103.265625 L 172.792969 99.148438 L 170.246094 95.132812 L 22.1875 188.832031 C 20.007812 190.214844 19.328125 193.101562 20.664062 195.308594 C 22 197.519531 24.875 198.257812 27.109375 196.964844 L 195.441406 99.777344 L 193.066406 95.664062 L 190.492188 91.667969 L 33.785156 192.53125 C 31.609375 193.929688 30.953125 196.796875 32.300781 199 C 33.644531 201.210938 36.496094 201.933594 38.734375 200.644531 L 42.53125 198.449219 L 29.148438 207.253906 C 27.003906 208.664062 26.367188 211.535156 27.710938 213.722656 C 29.0625 215.90625 31.914062 216.625 34.136719 215.339844 L 42.242188 210.660156 L 32.949219 216.414062 C 30.742188 217.785156 30.042969 220.667969 31.371094 222.898438 C 32.707031 225.125 35.582031 225.871094 37.832031 224.574219 L 324.375 59.136719 L 322 55.019531 L 319.542969 50.949219 L 48.6875 214.664062 C 46.453125 216.019531 45.726562 218.902344 47.054688 221.15625 C 48.382812 223.402344 51.261719 224.15625 53.523438 222.847656 L 91.039062 201.191406 L 49.175781 227.328125 C 46.972656 228.703125 46.28125 231.582031 47.617188 233.808594 C 48.957031 236.035156 51.824219 236.777344 54.074219 235.476562 L 103.605469 206.882812 L 49.859375 240.320312 C 47.65625 241.691406 46.960938 244.574219 48.296875 246.800781 C 49.632812 249.027344 52.503906 249.769531 54.75 248.472656 L 360.199219 72.121094 L 357.824219 68.003906 L 355.347656 63.949219 L 67.253906 239.660156 C 65.039062 241.007812 64.3125 243.910156 65.640625 246.140625 C 66.964844 248.375 69.855469 249.132812 72.105469 247.835938 L 135.703125 211.113281 L 79.566406 246.292969 C 77.363281 247.671875 76.675781 250.550781 78.015625 252.773438 C 79.355469 254.996094 82.214844 255.734375 84.464844 254.441406 L 100.785156 245.019531 L 83.066406 256.042969 C 80.859375 257.410156 80.164062 260.296875 81.5 262.519531 C 82.835938 264.746094 85.707031 265.492188 87.953125 264.195312 L 372.039062 100.179688 L 369.664062 96.058594 L 367.183594 92.003906 L 87.71875 262.910156 C 85.503906 264.265625 84.789062 267.167969 86.113281 269.398438 C 87.4375 271.628906 90.328125 272.386719 92.578125 271.085938 L 94.804688 269.796875 L 89.539062 273.0625 C 87.335938 274.433594 86.636719 277.316406 87.964844 279.542969 C 89.300781 281.773438 92.175781 282.515625 94.425781 281.21875 L 358.613281 128.6875 L 356.234375 124.574219 L 353.738281 120.527344 L 95.585938 279.796875 C 93.378906 281.15625 92.671875 284.046875 94.003906 286.277344 C 95.332031 288.503906 98.214844 289.257812 100.460938 287.957031 L 367.789062 133.617188 L 365.414062 129.5 L 362.917969 125.449219 L 105.769531 283.792969 C 103.558594 285.15625 102.847656 288.042969 104.179688 290.273438 C 105.507812 292.507812 108.386719 293.253906 110.640625 291.957031 L 363.84375 145.765625 L 361.46875 141.652344 L 358.972656 137.605469 L 106.324219 293.378906 C 104.117188 294.742188 103.410156 297.628906 104.738281 299.863281 C 106.070312 302.089844 108.949219 302.839844 111.199219 301.539062 L 161.246094 272.648438 L 115.882812 301.378906 C 113.703125 302.761719 113.027344 305.648438 114.363281 307.859375 C 115.695312 310.066406 118.570312 310.808594 120.804688 309.515625 L 348.207031 178.226562 L 345.832031 174.109375 L 343.324219 170.074219 L 135.800781 299.164062 C 133.597656 300.539062 132.902344 303.417969 134.238281 305.648438 C 135.570312 307.875 138.441406 308.617188 140.691406 307.320312 L 346.910156 188.261719 L 344.53125 184.140625 L 342.035156 180.097656 L 140.769531 304.457031 C 138.558594 305.824219 137.851562 308.710938 139.183594 310.941406 C 140.519531 313.167969 143.398438 313.914062 145.644531 312.621094 L 336.324219 202.527344 L 333.949219 198.410156 L 331.40625 194.394531 L 139.570312 315.660156 C 137.386719 317.042969 136.707031 319.929688 138.042969 322.140625 C 139.375 324.347656 142.25 325.085938 144.488281 323.796875 L 338.410156 211.835938 L 336.03125 207.71875 L 333.507812 203.691406 L 140.460938 324.691406 C 138.261719 326.070312 137.574219 328.945312 138.914062 331.171875 C 140.253906 333.398438 143.113281 334.132812 145.363281 332.839844 L 315.917969 234.367188 L 313.539062 230.253906 L 310.996094 226.234375 L 145.1875 331.414062 C 143.007812 332.796875 142.332031 335.679688 143.671875 337.886719 C 145.003906 340.097656 147.875 340.835938 150.113281 339.542969 L 312.070312 246.039062 L 309.691406 241.921875 L 307.097656 237.9375 L 170.949219 326.644531 C 168.78125 328.054688 168.140625 330.914062 169.492188 333.117188 C 170.839844 335.3125 173.683594 336.035156 175.917969 334.746094 L 186.363281 328.714844 L 170.894531 339.371094 C 168.789062 340.820312 168.207031 343.664062 169.574219 345.824219 C 170.9375 347.984375 173.757812 348.679688 175.964844 347.40625 L 239.101562 310.953125 C 241.375 309.640625 242.152344 306.730469 240.84375 304.457031 C 239.527344 302.183594 236.621094 301.40625 234.347656 302.71875 L 171.214844 339.167969 L 173.589844 343.285156 L 176.285156 347.199219 L 290.058594 268.832031 C 292.160156 267.382812 292.746094 264.535156 291.378906 262.375 C 290.019531 260.21875 287.195312 259.523438 284.984375 260.796875 L 171.167969 326.511719 L 173.542969 330.625 L 176.136719 334.613281 L 312.289062 245.902344 C 314.449219 244.492188 315.09375 241.636719 313.746094 239.433594 C 312.394531 237.234375 309.550781 236.511719 307.316406 237.804688 L 145.359375 331.3125 L 147.738281 335.425781 L 150.28125 339.441406 L 316.085938 234.265625 C 318.265625 232.882812 318.941406 229.996094 317.609375 227.789062 C 316.269531 225.582031 313.398438 224.84375 311.164062 226.132812 L 140.609375 324.605469 L 142.984375 328.71875 L 145.511719 332.75 L 338.554688 211.746094 C 340.753906 210.367188 341.445312 207.492188 340.105469 205.269531 C 338.765625 203.042969 335.90625 202.300781 333.652344 203.601562 L 139.734375 315.5625 L 142.109375 319.679688 L 144.648438 323.699219 L 336.488281 202.429688 C 338.667969 201.054688 339.351562 198.164062 338.015625 195.953125 C 336.679688 193.746094 333.804688 193.003906 331.570312 194.296875 L 140.890625 304.382812 L 143.265625 308.5 L 145.765625 312.542969 L 347.03125 188.1875 C 349.242188 186.820312 349.945312 183.929688 348.613281 181.703125 C 347.28125 179.476562 344.402344 178.726562 342.15625 180.023438 L 135.933594 299.085938 L 138.3125 303.199219 L 140.824219 307.238281 L 348.339844 178.144531 C 350.550781 176.773438 351.246094 173.890625 349.910156 171.664062 C 348.578125 169.433594 345.703125 168.691406 343.457031 169.992188 L 316.464844 185.574219 L 361.847656 156.824219 C 364.027344 155.445312 364.707031 152.558594 363.371094 150.347656 C 362.035156 148.140625 359.160156 147.398438 356.925781 148.691406 L 106.445312 293.308594 L 108.824219 297.425781 L 111.316406 301.46875 L 363.960938 145.695312 C 366.171875 144.335938 366.882812 141.445312 365.550781 139.214844 C 364.21875 136.988281 361.339844 136.234375 359.089844 137.535156 L 105.882812 283.722656 L 108.257812 287.839844 L 110.753906 291.886719 L 367.902344 133.546875 C 370.113281 132.1875 370.824219 129.292969 369.492188 127.0625 C 368.164062 124.835938 365.285156 124.085938 363.03125 125.382812 L 95.707031 279.726562 L 98.085938 283.839844 L 100.578125 287.886719 L 358.730469 128.617188 C 360.9375 127.253906 361.648438 124.367188 360.316406 122.132812 C 358.984375 119.90625 356.109375 119.160156 353.855469 120.457031 L 351.714844 121.691406 L 356.992188 118.417969 C 359.195312 117.054688 359.902344 114.167969 358.566406 111.941406 C 357.230469 109.714844 354.359375 108.964844 352.109375 110.265625 L 87.820312 262.851562 L 90.199219 266.96875 L 92.679688 271.023438 L 372.140625 100.113281 C 374.359375 98.761719 375.074219 95.863281 373.746094 93.632812 C 372.425781 91.402344 369.535156 90.644531 367.285156 91.945312 L 333.121094 111.671875 L 350.851562 100.640625 C 353.054688 99.265625 353.75 96.382812 352.417969 94.15625 C 351.082031 91.929688 348.210938 91.1875 345.960938 92.484375 L 307.320312 114.796875 L 363.445312 79.625 C 365.644531 78.25 366.328125 75.371094 364.996094 73.148438 C 363.65625 70.925781 360.789062 70.183594 358.542969 71.480469 L 67.351562 239.601562 L 69.726562 243.71875 L 72.203125 247.773438 L 360.296875 72.0625 C 362.511719 70.710938 363.238281 67.8125 361.910156 65.582031 C 360.585938 63.34375 357.695312 62.589844 355.445312 63.890625 L 299.4375 96.222656 L 353.175781 62.785156 C 355.378906 61.414062 356.078125 58.535156 354.742188 56.308594 C 353.40625 54.078125 350.539062 53.335938 348.285156 54.636719 L 287.742188 89.589844 L 329.597656 63.453125 C 331.800781 62.082031 332.496094 59.199219 331.15625 56.976562 C 329.816406 54.753906 326.953125 54.007812 324.707031 55.308594 L 48.769531 214.617188 L 51.148438 218.734375 L 53.605469 222.800781 L 324.457031 59.085938 C 326.695312 57.734375 327.421875 54.847656 326.09375 52.601562 C 324.765625 50.351562 321.882812 49.597656 319.625 50.902344 L 300.867188 61.734375 L 310.167969 55.972656 C 312.375 54.609375 313.078125 51.71875 311.742188 49.492188 C 310.414062 47.265625 307.535156 46.515625 305.289062 47.816406 L 171.054688 125.3125 L 184.441406 116.507812 C 186.585938 115.101562 187.222656 112.230469 185.875 110.042969 C 184.527344 107.859375 181.675781 107.136719 179.453125 108.421875 L 33.980469 192.410156 L 36.359375 196.527344 L 38.929688 200.523438 L 195.636719 99.660156 C 197.808594 98.261719 198.46875 95.390625 197.125 93.1875 C 195.777344 90.980469 192.925781 90.253906 190.6875 91.546875 L 22.351562 188.734375 L 24.734375 192.851562 L 27.273438 196.867188 L 175.332031 103.164062 C 177.511719 101.785156 178.195312 98.898438 176.855469 96.691406 C 175.519531 94.476562 172.644531 93.742188 170.410156 95.03125 L 155.460938 103.664062 L 175.492188 90.417969 C 177.632812 89 178.265625 86.136719 176.914062 83.953125 C 175.5625 81.769531 172.71875 81.050781 170.492188 82.339844 L 23.898438 166.972656 L 26.277344 171.089844 L 28.871094 175.070312 L 185.152344 73.214844 C 187.3125 71.800781 187.957031 68.941406 186.605469 66.742188 C 185.253906 64.542969 182.414062 63.824219 180.179688 65.109375 L 138.050781 89.4375 L 163.734375 72.265625 C 165.867188 70.835938 166.480469 67.980469 165.125 65.804688 C 163.769531 63.625 160.9375 62.910156 158.714844 64.199219 L 16.777344 146.144531 L 19.15625 150.257812 L 21.742188 154.25 L 170.679688 57.769531 C 172.851562 56.371094 173.5 53.503906 172.152344 51.300781 C 170.800781 49.101562 167.957031 48.375 165.722656 49.667969 L 126.632812 72.230469 L 149.640625 56.710938 C 151.765625 55.277344 152.371094 52.425781 151.011719 50.25 C 149.652344 48.074219 146.824219 47.371094 144.601562 48.652344 L 3.074219 130.367188 L 5.449219 134.480469 L 7.992188 138.5 L 153.113281 46.773438 C 155.296875 45.394531 155.976562 42.507812 154.644531 40.296875 C 153.308594 38.089844 150.429688 37.347656 148.195312 38.640625 L 121.792969 53.882812 L 132.292969 46.675781 C 134.402344 45.234375 134.992188 42.382812 133.628906 40.222656 C 132.265625 38.0625 129.441406 37.363281 127.230469 38.640625 L 14.101562 103.957031 L 16.476562 108.074219 L 19.171875 111.988281 L 113.375 47.261719 C 115.480469 45.816406 116.066406 42.964844 114.707031 40.808594 C 113.339844 38.648438 110.519531 37.953125 108.304688 39.226562 L 16.148438 92.433594 L 18.523438 96.554688 L 21.1875 100.492188 L 116.882812 35.761719 C 118.996094 34.335938 119.605469 31.46875 118.25 29.304688 C 116.894531 27.140625 114.050781 26.429688 111.84375 27.710938 L 83.117188 44.296875 L 94.859375 35.484375 C 96.867188 33.980469 97.355469 31.160156 95.972656 29.066406 C 94.589844 26.972656 91.800781 26.3125 89.628906 27.566406 L 25.738281 64.453125 L 28.121094 68.566406 L 31.160156 72.222656 L 69.636719 40.203125 C 71.535156 38.621094 71.90625 35.851562 70.5 33.828125 C 69.085938 31.804688 66.355469 31.195312 64.21875 32.433594 L 31.800781 51.152344 C 29.523438 52.460938 28.746094 55.371094 30.058594 57.644531 C 31.367188 59.917969 34.277344 60.695312 36.550781 59.382812 "/>
</g>
</g>
</svg>
