<?xml version="1.0" encoding="UTF-8"?>
<svg xmlns="http://www.w3.org/2000/svg" xmlns:xlink="http://www.w3.org/1999/xlink" width="375pt" height="374.999991pt" viewBox="0 0 375 374.999991" version="1.2">
<defs>
<clipPath id="clip1">
  <path d="M 156 114 L 364.605469 114 L 364.605469 321.71875 L 156 321.71875 Z M 156 114 "/>
</clipPath>
<clipPath id="clip2">
  <path d="M 10.605469 114 L 219 114 L 219 321.71875 L 10.605469 321.71875 Z M 10.605469 114 "/>
</clipPath>
</defs>
<g id="surface1">
<path style="fill:none;stroke-width:56.759998;stroke-linecap:round;stroke-linejoin:round;stroke:rgb(13.729858%,12.159729%,12.159729%);stroke-opacity:1;stroke-miterlimit:10;" d="M 2357.888724 3176.183992 C 2305.316156 3247.888764 2141.407601 3255.793227 2099.097939 3143.503355 C 2056.788278 3255.793227 1892.912829 3247.888764 1840.307154 3176.183992 C 1778.895244 3092.390041 1795.415213 2984.185248 1863.613885 2902.08511 C 1931.911875 2819.885337 2099.097939 2689.893452 2099.097939 2689.893452 C 2099.097939 2689.893452 2266.416428 2819.885337 2334.6151 2902.08511 C 2402.91309 2984.185248 2419.399954 3092.390041 2357.888724 3176.183992 Z M 2357.888724 3176.183992 " transform="matrix(0.117992,0,0,-0.117616,-63.14091,438.689611)"/>
<g clip-path="url(#clip1)" clip-rule="nonzero">
<path style="fill:none;stroke-width:56.759998;stroke-linecap:round;stroke-linejoin:round;stroke:rgb(13.729858%,12.159729%,12.159729%);stroke-opacity:1;stroke-miterlimit:10;" d="M 2745.7935 2728.485831 C 2501.503209 2728.485831 2281.413515 2625.694599 2126.01324 2461.095779 C 2165.012287 2419.813226 2200.104807 2374.71129 2230.297617 2326.088878 C 2355.803037 2469.697695 2540.2043 2560.399748 2745.7935 2560.399748 C 3123.998173 2560.399748 3430.59424 2253.885925 3430.59424 1875.700543 C 3430.59424 1497.51516 3123.998173 1190.901701 2745.7935 1190.901701 C 2367.588827 1190.901701 2061.092078 1497.51516 2061.092078 1875.700543 C 2061.092078 1979.687408 2084.398808 2078.293924 2125.913922 2166.604711 C 2098.601347 2224.692551 2063.409508 2278.296767 2021.596439 2326.088878 C 1940.188413 2195.399541 1893.012147 2041.096451 1893.012147 1875.700543 C 1893.012147 1404.687537 2274.792284 1022.815618 2745.7935 1022.815618 C 3216.794715 1022.815618 3598.707277 1404.687537 3598.707277 1875.700543 C 3598.707277 2346.713549 3216.794715 2728.485831 2745.7935 2728.485831 Z M 2745.7935 2728.485831 " transform="matrix(0.117992,0,0,-0.117616,-63.14091,438.689611)"/>
</g>
<g clip-path="url(#clip2)" clip-rule="nonzero">
<path style="fill:none;stroke-width:56.759998;stroke-linecap:round;stroke-linejoin:round;stroke:rgb(13.729858%,12.159729%,12.159729%);stroke-opacity:1;stroke-miterlimit:10;" d="M 2021.894394 1425.411843 C 1896.289656 1281.803026 1711.888393 1190.901701 1506.199875 1190.901701 C 1127.995202 1190.901701 821.465347 1497.51516 821.465347 1875.700543 C 821.465347 2253.885925 1127.995202 2560.399748 1506.199875 2560.399748 C 1884.404548 2560.399748 2190.901297 2253.885925 2190.901297 1875.700543 C 2190.901297 1771.614041 2167.594566 1673.007525 2126.112559 1584.597102 C 2153.392028 1526.509262 2188.583866 1472.905046 2230.297617 1425.212571 C 2311.804962 1555.901908 2359.014334 1710.204998 2359.014334 1875.700543 C 2359.014334 2346.713549 1977.20109 2728.485831 1506.199875 2728.485831 C 1035.19866 2728.485831 653.319204 2346.713549 653.319204 1875.700543 C 653.319204 1404.687537 1035.19866 1022.815618 1506.199875 1022.815618 C 1750.390847 1022.815618 1970.513647 1125.60685 2126.01324 1290.106034 C 2086.914876 1331.488223 2052.087204 1376.789432 2021.894394 1425.411843 Z M 2021.894394 1425.411843 " transform="matrix(0.117992,0,0,-0.117616,-63.14091,438.689611)"/>
</g>
</g>
</svg>
