<?xml version="1.0" encoding="UTF-8"?>
<svg xmlns="http://www.w3.org/2000/svg" xmlns:xlink="http://www.w3.org/1999/xlink" width="375pt" height="374.999991pt" viewBox="0 0 375 374.999991" version="1.2">
<defs>
<clipPath id="clip1">
  <path d="M 23 4.441406 L 351 4.441406 L 351 370.324219 L 23 370.324219 Z M 23 4.441406 "/>
</clipPath>
</defs>
<g id="surface1">
<g clip-path="url(#clip1)" clip-rule="nonzero">
<path style=" stroke:none;fill-rule:evenodd;fill:rgb(0%,0%,0%);fill-opacity:1;" d="M 278.847656 118.304688 C 297.730469 145.867188 350.835938 227.671875 350.835938 276.128906 C 350.835938 335.070312 315.660156 370.324219 272.304688 370.324219 C 228.945312 370.324219 193.773438 335.070312 193.773438 276.128906 C 193.773438 227.671875 246.875 145.867188 265.757812 118.304688 L 265.757812 82.300781 C 247.214844 79.167969 233.039062 63.039062 233.039062 43.644531 C 233.039062 22 250.625 4.441406 272.304688 4.441406 C 293.980469 4.441406 311.570312 22 311.570312 43.644531 C 311.570312 63.039062 297.390625 79.167969 278.847656 82.300781 Z M 108.695312 118.304688 C 127.578125 145.867188 180.683594 227.671875 180.683594 276.128906 C 180.683594 335.070312 145.507812 370.324219 102.152344 370.324219 C 58.796875 370.324219 23.621094 335.070312 23.621094 276.128906 C 23.621094 227.671875 76.722656 145.867188 95.605469 118.304688 L 95.605469 82.300781 C 77.066406 79.167969 62.886719 63.039062 62.886719 43.644531 C 62.886719 22 80.472656 4.441406 102.152344 4.441406 C 123.828125 4.441406 141.417969 22 141.417969 43.644531 C 141.417969 63.039062 127.238281 79.167969 108.695312 82.300781 Z M 102.152344 69.777344 C 116.605469 69.777344 128.328125 58.070312 128.328125 43.644531 C 128.328125 29.214844 116.605469 17.507812 102.152344 17.507812 C 87.699219 17.507812 75.972656 29.214844 75.972656 43.644531 C 75.972656 58.070312 87.699219 69.777344 102.152344 69.777344 Z M 102.152344 131.984375 C 95.675781 141.917969 82.65625 162.132812 74.269531 176.902344 C 66.429688 190.648438 59.476562 203.988281 53.75 216.578125 C 42.707031 240.945312 36.707031 261.429688 36.707031 276.128906 C 36.707031 325.8125 64.316406 357.257812 102.152344 357.257812 C 139.984375 357.257812 167.59375 325.8125 167.59375 276.128906 C 167.59375 261.429688 161.59375 240.945312 150.550781 216.578125 C 144.824219 203.988281 137.871094 190.648438 130.03125 176.902344 C 121.648438 162.132812 108.832031 141.917969 102.152344 131.984375 Z M 102.152344 304.988281 C 77.679688 304.988281 57.839844 286.679688 57.839844 256.054688 C 57.839844 225.359375 102.152344 161.246094 102.152344 161.246094 C 102.152344 161.246094 146.460938 225.359375 146.460938 256.054688 C 146.460938 286.679688 126.625 304.988281 102.152344 304.988281 Z M 102.152344 185.410156 C 102.152344 185.410156 93.492188 199.835938 91.449219 203.511719 C 87.835938 209.976562 84.5625 216.238281 81.769531 222.226562 C 74.746094 236.929688 70.929688 248.839844 70.929688 256.054688 C 70.929688 278.375 83.882812 291.921875 102.152344 291.921875 C 120.421875 291.921875 133.375 278.375 133.375 256.054688 C 133.375 248.839844 129.554688 236.929688 122.535156 222.226562 C 119.738281 216.238281 116.46875 209.976562 112.855469 203.511719 C 110.195312 198.679688 102.152344 185.410156 102.152344 185.410156 Z M 272.304688 69.777344 C 286.753906 69.777344 298.480469 58.070312 298.480469 43.644531 C 298.480469 29.214844 286.753906 17.507812 272.304688 17.507812 C 257.851562 17.507812 246.125 29.214844 246.125 43.644531 C 246.125 58.070312 257.851562 69.777344 272.304688 69.777344 Z M 272.304688 131.984375 C 265.828125 141.917969 252.804688 162.132812 244.421875 176.902344 C 236.582031 190.648438 229.628906 203.988281 223.902344 216.578125 C 212.859375 240.945312 206.859375 261.429688 206.859375 276.128906 C 206.859375 325.8125 234.46875 357.257812 272.304688 357.257812 C 310.136719 357.257812 337.746094 325.8125 337.746094 276.128906 C 337.746094 261.429688 331.746094 240.945312 320.703125 216.578125 C 314.976562 203.988281 308.023438 190.648438 300.183594 176.902344 C 291.800781 162.132812 278.984375 141.917969 272.304688 131.984375 Z M 272.304688 304.988281 C 247.832031 304.988281 227.992188 286.679688 227.992188 256.054688 C 227.992188 225.359375 272.304688 161.246094 272.304688 161.246094 C 272.304688 161.246094 316.613281 225.359375 316.613281 256.054688 C 316.613281 286.679688 296.777344 304.988281 272.304688 304.988281 Z M 272.304688 185.410156 C 272.304688 185.410156 263.644531 199.835938 261.601562 203.511719 C 257.988281 209.976562 254.714844 216.238281 251.921875 222.226562 C 244.898438 236.929688 241.082031 248.839844 241.082031 256.054688 C 241.082031 278.375 254.035156 291.921875 272.304688 291.921875 C 290.574219 291.921875 303.523438 278.375 303.523438 256.054688 C 303.523438 248.839844 299.707031 236.929688 292.6875 222.226562 C 289.890625 216.238281 286.617188 209.976562 283.003906 203.511719 C 280.347656 198.679688 272.304688 185.410156 272.304688 185.410156 Z M 272.304688 185.410156 "/>
</g>
</g>
</svg>
