<?xml version="1.0" encoding="UTF-8"?>
<svg xmlns="http://www.w3.org/2000/svg" xmlns:xlink="http://www.w3.org/1999/xlink" width="375pt" height="374.999991pt" viewBox="0 0 375 374.999991" version="1.2">
<defs>
<clipPath id="clip1">
  <path d="M 0 0 L 374.875 0 L 374.875 374.828125 L 0 374.828125 Z M 0 0 "/>
</clipPath>
</defs>
<g id="surface1">
<g clip-path="url(#clip1)" clip-rule="nonzero">
<path style=" stroke:none;fill-rule:nonzero;fill:rgb(0%,0%,0%);fill-opacity:1;" d="M 325.214844 325.257812 C 277.667969 372.78125 200.332031 372.78125 152.808594 325.257812 C 151.414062 323.863281 150.0625 322.421875 148.734375 320.984375 L 147.8125 319.992188 L 147.046875 319.027344 C 139.285156 310.136719 132.894531 300.238281 128.078125 289.660156 L 127.898438 289.300781 C 102.042969 240.113281 98.355469 185.390625 99.816406 148.148438 C 100.242188 137.4375 103.933594 127.695312 109.898438 119.773438 C 112.664062 122.566406 115.453125 125.332031 118.222656 128.125 C 124.566406 134.46875 134.421875 124.613281 128.078125 118.265625 C 125.308594 115.476562 122.519531 112.710938 119.730469 109.917969 C 127.652344 103.980469 137.394531 100.289062 148.105469 99.863281 C 185.34375 98.398438 240.066406 102.066406 289.257812 127.941406 L 289.617188 128.101562 C 300.214844 132.9375 310.09375 139.328125 319.003906 147.070312 L 320.960938 148.78125 C 322.402344 150.085938 323.816406 151.433594 325.214844 152.828125 C 348.253906 175.847656 360.921875 206.472656 360.921875 239.03125 C 360.921875 271.59375 348.253906 302.21875 325.214844 325.257812 Z M 95.023438 85.214844 C 92.59375 82.78125 90.164062 80.351562 87.734375 77.921875 C 81.386719 71.578125 71.53125 81.433594 77.878906 87.777344 C 80.332031 90.207031 82.738281 92.636719 85.191406 95.070312 C 77.5625 100.648438 68.425781 103.710938 58.796875 103.710938 C 46.804688 103.710938 35.550781 99.027344 27.070312 90.566406 C 18.609375 82.085938 13.929688 70.8125 13.929688 58.839844 C 13.929688 46.847656 18.609375 35.574219 27.070312 27.113281 C 35.550781 18.632812 46.804688 13.972656 58.796875 13.972656 C 70.789062 13.972656 82.039062 18.632812 90.523438 27.113281 C 106.34375 42.910156 107.804688 67.683594 95.023438 85.214844 Z M 335.675781 143.582031 L 336.261719 143.042969 L 330.117188 138.089844 C 329.644531 137.707031 329.152344 137.328125 328.65625 136.964844 L 328.003906 136.425781 C 318.171875 127.898438 307.257812 120.855469 295.578125 115.5 C 243.691406 88.296875 186.46875 84.378906 147.5625 85.933594 C 133.386719 86.496094 120.382812 91.761719 109.964844 100.152344 C 108.300781 98.488281 106.632812 96.824219 104.992188 95.160156 C 123.148438 72.117188 121.621094 38.523438 100.378906 17.257812 C 89.261719 6.144531 74.503906 0.0234375 58.796875 0.0234375 C 43.089844 0.0234375 28.328125 6.144531 17.214844 17.257812 C 6.121094 28.351562 0 43.136719 0 58.839844 C 0 74.546875 6.121094 89.308594 17.214844 100.402344 C 28.328125 111.515625 43.089844 117.636719 58.796875 117.636719 C 72.164062 117.636719 84.808594 113.160156 95.136719 105.015625 C 96.800781 106.679688 98.464844 108.34375 100.109375 110.007812 C 91.714844 120.40625 86.472656 133.433594 85.910156 147.585938 C 84.378906 186.515625 88.273438 243.757812 115.476562 295.601562 C 120.832031 307.300781 127.875 318.191406 136.402344 328.027344 L 136.945312 328.722656 C 137.304688 329.195312 137.664062 329.667969 138.046875 330.140625 L 142.953125 335.992188 L 143.402344 335.5625 C 169.839844 361.734375 204.402344 374.828125 239.011719 374.828125 C 273.796875 374.828125 308.585938 361.574219 335.070312 335.089844 C 360.71875 309.441406 374.851562 275.328125 374.851562 239.03125 C 374.851562 203.03125 360.945312 169.1875 335.675781 143.582031 "/>
</g>
<path style=" stroke:none;fill-rule:nonzero;fill:rgb(0%,0%,0%);fill-opacity:1;" d="M 308.335938 298.503906 L 298.414062 288.601562 C 308.789062 276.183594 314.683594 261.265625 316.054688 246.007812 L 330.027344 246.007812 C 328.609375 264.863281 321.367188 283.316406 308.335938 298.503906 Z M 245.964844 330.117188 L 245.964844 316.121094 C 261.714844 314.726562 276.453125 308.605469 288.582031 298.460938 L 298.480469 308.359375 C 283.675781 321.09375 265.449219 328.65625 245.964844 330.117188 Z M 194.121094 283.921875 C 169.367188 259.171875 169.367188 218.894531 194.121094 194.140625 C 206.113281 182.148438 222.042969 175.554688 239.011719 175.554688 C 255.953125 175.554688 271.90625 182.148438 283.902344 194.140625 C 308.652344 218.894531 308.652344 259.171875 283.902344 283.921875 C 271.90625 295.917969 255.953125 302.53125 239.011719 302.53125 C 222.042969 302.53125 206.113281 295.917969 194.121094 283.921875 Z M 232.035156 330.117188 C 212.570312 328.65625 194.324219 321.09375 179.539062 308.359375 L 189.441406 298.460938 C 201.546875 308.605469 216.304688 314.726562 232.035156 316.121094 Z M 147.96875 246.007812 L 161.964844 246.007812 C 163.339844 261.265625 169.210938 276.183594 179.585938 288.601562 L 169.683594 298.503906 C 156.632812 283.316406 149.410156 264.863281 147.96875 246.007812 Z M 169.683594 179.5625 L 179.585938 189.484375 C 169.210938 201.90625 163.339844 216.800781 161.964844 232.078125 L 147.96875 232.078125 C 149.410156 213.222656 156.632812 194.75 169.683594 179.5625 Z M 232.035156 147.96875 L 232.035156 161.964844 C 216.304688 163.359375 201.546875 169.457031 189.441406 179.605469 L 179.539062 169.707031 C 194.324219 156.96875 212.570312 149.433594 232.035156 147.96875 Z M 245.964844 147.96875 C 265.449219 149.433594 283.675781 156.96875 298.480469 169.707031 L 288.582031 179.605469 C 276.453125 169.457031 261.714844 163.359375 245.964844 161.964844 Z M 330.027344 232.078125 L 316.054688 232.078125 C 314.683594 216.800781 308.789062 201.90625 298.414062 189.484375 L 308.335938 179.5625 C 321.367188 194.75 328.609375 213.222656 330.027344 232.078125 Z M 313.46875 164.574219 C 293.578125 144.707031 267.136719 133.75 239.011719 133.75 C 210.882812 133.75 184.445312 144.707031 164.554688 164.574219 C 123.488281 205.640625 123.488281 272.449219 164.554688 313.488281 C 184.445312 333.382812 210.882812 344.339844 239.011719 344.339844 C 267.136719 344.339844 293.578125 333.382812 313.46875 313.488281 C 354.511719 272.449219 354.511719 205.640625 313.46875 164.574219 "/>
<path style=" stroke:none;fill-rule:nonzero;fill:rgb(0%,0%,0%);fill-opacity:1;" d="M 233.96875 253.703125 L 253.660156 234.015625 L 260.296875 260.339844 Z M 217.519531 217.566406 L 243.714844 224.25 L 224.226562 243.757812 Z M 264.503906 220.019531 C 263.71875 216.824219 261.242188 214.347656 258.070312 213.539062 L 212.796875 201.972656 C 209.734375 201.183594 206.496094 202.085938 204.269531 204.289062 C 202.039062 206.519531 201.164062 209.78125 201.929688 212.820312 L 213.515625 258.113281 C 214.328125 261.265625 216.777344 263.738281 219.972656 264.550781 L 265.042969 275.890625 C 265.785156 276.09375 266.507812 276.183594 267.25 276.183594 C 269.589844 276.183594 271.816406 275.261719 273.527344 273.550781 C 275.777344 271.324219 276.632812 268.148438 275.867188 265.066406 L 264.503906 220.019531 "/>
</g>
</svg>
