<?xml version="1.0" encoding="UTF-8"?>
<svg xmlns="http://www.w3.org/2000/svg" xmlns:xlink="http://www.w3.org/1999/xlink" width="375pt" height="374.999991pt" viewBox="0 0 375 374.999991" version="1.2">
<g id="surface1">
<path style=" stroke:none;fill-rule:nonzero;fill:rgb(0%,0%,0%);fill-opacity:1;" d="M 370.625 175.253906 L 315.804688 121.015625 L 315.804688 54.53125 C 315.804688 47.824219 310.554688 42.574219 304.140625 42.574219 L 280.8125 42.574219 C 274.398438 42.574219 269.148438 48.113281 269.148438 54.53125 L 269.148438 74.941406 L 200.039062 6.707031 C 193.039062 0 181.960938 0 175.253906 6.707031 L 4.375 175.253906 C 1.167969 178.460938 0 183.125 1.75 187.207031 C 3.5 191.582031 7.582031 194.207031 12.539062 194.207031 L 15.453125 194.207031 C 15.453125 194.207031 35.867188 194.207031 35.867188 194.207031 L 35.867188 357.503906 C 35.867188 367.125 44.03125 375 53.945312 375 L 321.054688 375 C 330.675781 375 339.132812 367.125 339.132812 357.503906 L 339.132812 194.207031 C 339.132812 194.207031 359.546875 194.207031 359.546875 194.207031 L 362.167969 194.207031 C 367.125 194.207031 371.5 191.582031 373.25 187.207031 C 375 183.125 374.125 178.460938 370.625 175.253906 Z M 280.8125 54.53125 L 304.140625 54.53125 L 304.140625 109.640625 L 280.8125 86.605469 Z M 222.492188 363.335938 L 152.507812 363.335938 L 152.507812 281.6875 C 152.507812 278.480469 155.132812 275.855469 158.339844 275.855469 L 216.660156 275.855469 C 219.867188 275.855469 222.492188 278.480469 222.492188 281.6875 Z M 327.46875 357.503906 C 327.46875 360.710938 324.554688 363.335938 321.054688 363.335938 L 234.15625 363.335938 L 234.15625 281.6875 C 234.15625 272.066406 226.28125 264.191406 216.660156 264.191406 L 158.339844 264.191406 C 148.71875 264.191406 140.84375 272.066406 140.84375 281.6875 L 140.84375 363.335938 L 53.945312 363.335938 C 50.445312 363.335938 47.53125 360.710938 47.53125 357.503906 L 47.53125 194.207031 L 70.859375 194.207031 C 74.066406 194.207031 76.691406 191.582031 76.691406 188.375 C 76.691406 185.167969 74.066406 182.542969 70.859375 182.542969 L 13.414062 182.542969 L 183.125 15.164062 C 185.457031 12.832031 189.25 12.832031 191.582031 15.164062 L 361.585938 182.542969 L 307.058594 182.542969 C 303.847656 182.542969 301.226562 185.167969 301.226562 188.375 C 301.226562 191.582031 303.847656 194.207031 307.058594 194.207031 L 327.46875 194.207031 Z M 327.46875 357.503906 "/>
<path style=" stroke:none;fill-rule:nonzero;fill:rgb(0%,0%,0%);fill-opacity:1;" d="M 187.5 159.214844 C 171.460938 159.214844 158.339844 172.335938 158.339844 188.375 C 158.339844 204.414062 171.460938 217.535156 187.5 217.535156 C 203.539062 217.535156 216.660156 204.414062 216.660156 188.375 C 216.660156 172.335938 203.539062 159.214844 187.5 159.214844 Z M 187.5 205.871094 C 177.878906 205.871094 170.003906 197.996094 170.003906 188.375 C 170.003906 178.75 177.878906 170.878906 187.5 170.878906 C 197.121094 170.878906 204.996094 178.75 204.996094 188.375 C 204.996094 197.996094 197.121094 205.871094 187.5 205.871094 Z M 187.5 205.871094 "/>
<path style=" stroke:none;fill-rule:nonzero;fill:rgb(0%,0%,0%);fill-opacity:1;" d="M 181.667969 109.640625 L 193.332031 109.640625 C 196.539062 109.640625 199.164062 107.019531 199.164062 103.808594 C 199.164062 100.601562 196.539062 97.976562 193.332031 97.976562 L 181.667969 97.976562 C 178.460938 97.976562 175.835938 100.601562 175.835938 103.808594 C 175.835938 107.019531 178.460938 109.640625 181.667969 109.640625 Z M 181.667969 109.640625 "/>
<path style=" stroke:none;fill-rule:nonzero;fill:rgb(0%,0%,0%);fill-opacity:1;" d="M 100.019531 316.679688 L 88.355469 316.679688 C 85.148438 316.679688 82.523438 319.304688 82.523438 322.511719 C 82.523438 325.71875 85.148438 328.34375 88.355469 328.34375 L 100.019531 328.34375 C 103.226562 328.34375 105.851562 325.71875 105.851562 322.511719 C 105.851562 319.304688 103.226562 316.679688 100.019531 316.679688 Z M 100.019531 316.679688 "/>
<path style=" stroke:none;fill-rule:nonzero;fill:rgb(0%,0%,0%);fill-opacity:1;" d="M 286.644531 319.59375 L 274.980469 319.59375 C 271.773438 319.59375 269.148438 322.21875 269.148438 325.425781 C 269.148438 328.636719 271.773438 331.257812 274.980469 331.257812 L 286.644531 331.257812 C 289.851562 331.257812 292.476562 328.636719 292.476562 325.425781 C 292.476562 322.21875 289.851562 319.59375 286.644531 319.59375 Z M 286.644531 319.59375 "/>
</g>
</svg>
