<?xml version="1.0" encoding="UTF-8"?>
<svg xmlns="http://www.w3.org/2000/svg" xmlns:xlink="http://www.w3.org/1999/xlink" width="375pt" height="374.999991pt" viewBox="0 0 375 374.999991" version="1.2">
<defs>
<clipPath id="clip1">
  <path d="M 10 15 L 367 15 L 367 370.453125 L 10 370.453125 Z M 10 15 "/>
</clipPath>
</defs>
<g id="surface1">
<g clip-path="url(#clip1)" clip-rule="nonzero">
<path style=" stroke:none;fill-rule:nonzero;fill:rgb(0%,0%,0%);fill-opacity:1;" d="M 262.191406 266.324219 C 196.203125 332.292969 141.820312 361.09375 100.566406 351.90625 C 100.433594 351.875 100.25 351.839844 100.117188 351.816406 C 98.507812 351.542969 65.464844 345.273438 40.753906 301.957031 C 41.816406 302.027344 42.890625 302.074219 43.996094 302.074219 C 83.578125 302.074219 149 257.691406 201.277344 205.425781 C 255.015625 151.707031 300.40625 84.109375 297.835938 44.945312 C 341.164062 69.644531 347.429688 102.675781 347.699219 104.238281 C 347.726562 104.40625 347.757812 104.574219 347.796875 104.738281 C 356.984375 145.984375 328.179688 200.351562 262.191406 266.324219 Z M 364.359375 101.261719 C 363.492188 96.4375 352.765625 45.953125 281.394531 18.574219 C 252.25 4.460938 196.085938 36.246094 150.394531 73.359375 C 142.957031 79.398438 139.167969 87.984375 139.738281 97.53125 C 139.753906 97.808594 139.785156 98.085938 139.828125 98.363281 C 143.972656 124.308594 159.472656 147.1875 182.359375 161.140625 C 186.347656 163.574219 191.550781 162.3125 193.984375 158.324219 C 196.417969 154.332031 195.15625 149.128906 191.167969 146.699219 C 172.925781 135.574219 160.035156 116.703125 156.609375 96.144531 C 156.476562 92.191406 157.933594 89.03125 161.0625 86.488281 C 220.769531 37.996094 265.457031 24.292969 277.195312 36.019531 C 291.726562 50.550781 265.324219 117.476562 189.316406 193.464844 C 113.300781 269.457031 46.363281 295.851562 31.828125 281.324219 C 20.097656 269.59375 33.804688 224.917969 82.3125 165.222656 C 84.851562 162.09375 88.019531 160.640625 91.96875 160.769531 C 112.535156 164.195312 131.410156 177.082031 142.535156 195.320312 C 144.96875 199.308594 150.175781 200.566406 154.164062 198.136719 C 158.152344 195.703125 159.414062 190.5 156.980469 186.511719 C 143.027344 163.632812 120.140625 148.132812 94.191406 143.992188 C 93.914062 143.949219 93.636719 143.917969 93.355469 143.898438 C 83.808594 143.34375 75.222656 147.117188 69.175781 154.554688 C 32.0625 200.234375 0.273438 256.375 14.375 285.519531 C 41.757812 356.871094 92.265625 367.597656 97.085938 368.464844 C 103.125 369.792969 109.355469 370.453125 115.796875 370.453125 C 159.726562 370.453125 212.882812 339.542969 274.15625 278.285156 C 344.40625 208.050781 374.753906 148.492188 364.359375 101.261719 "/>
</g>
</g>
</svg>
