<?xml version="1.0" encoding="UTF-8"?>
<svg xmlns="http://www.w3.org/2000/svg" xmlns:xlink="http://www.w3.org/1999/xlink" width="375pt" height="374.999991pt" viewBox="0 0 375 374.999991" version="1.2">
<defs>
<clipPath id="clip1">
  <path d="M 162.246094 104.164062 L 212.496094 104.164062 L 212.496094 270.664062 L 162.246094 270.664062 Z M 162.246094 104.164062 "/>
</clipPath>
</defs>
<g id="surface1">
<g clip-path="url(#clip1)" clip-rule="nonzero">
<path style=" stroke:none;fill-rule:nonzero;fill:rgb(0%,56.858826%,81.959534%);fill-opacity:1;" d="M 172 108.003906 C 172.964844 106.183594 174.136719 104.949219 176.074219 104.429688 C 177.007812 104.179688 177.617188 104.355469 178.226562 104.921875 C 178.863281 105.515625 179.5 106.113281 180.078125 106.769531 C 187.585938 115.261719 193.921875 124.5625 199.371094 134.472656 C 202.964844 141.011719 206.460938 147.613281 208.984375 154.667969 C 213.476562 167.203125 213.589844 179.816406 209.652344 192.496094 C 208.445312 196.394531 206.515625 199.9375 204.195312 203.304688 C 203.550781 204.242188 203.082031 205.410156 202.90625 206.527344 C 200.867188 219.308594 196.628906 231.253906 189.523438 242.136719 C 187.625 245.054688 185.566406 247.863281 183.808594 251.042969 C 184.59375 250.511719 185.382812 249.984375 186.15625 249.449219 C 187.207031 248.722656 188.21875 247.945312 189.304688 247.28125 C 191.878906 245.6875 195.183594 246.773438 196.613281 249.78125 C 188.1875 257.070312 179.082031 263.585938 170.027344 270.511719 C 167.683594 270.359375 165.671875 268.917969 163.710938 267.453125 C 162.714844 266.710938 162.273438 265.570312 162.570312 264.265625 C 162.746094 263.496094 162.882812 262.710938 163.042969 261.933594 C 165.003906 252.308594 164.910156 242.710938 162.699219 233.136719 C 162.511719 232.3125 162.417969 231.457031 162.246094 230.347656 C 163.125 230.417969 163.773438 230.324219 164.304688 230.53125 C 165.761719 231.089844 167.230469 231.683594 168.597656 232.441406 C 169.652344 233.023438 170.300781 233.972656 170.527344 235.265625 C 171.128906 238.617188 171.855469 241.941406 172.542969 245.28125 C 172.664062 245.867188 172.808594 246.457031 173.011719 247.324219 C 181.5625 236.894531 186.757812 225.199219 190.269531 212.464844 C 188.390625 212.5625 186.75 212.636719 185.109375 212.738281 C 181.5 212.957031 178.4375 211.710938 176.265625 208.898438 C 174.328125 206.402344 172.519531 203.75 171.035156 200.96875 C 168.203125 195.632812 165.832031 190.078125 164.554688 184.128906 C 163.96875 181.394531 163.789062 178.652344 164.046875 175.851562 C 164.464844 171.359375 166.796875 168.308594 170.96875 166.714844 C 175.824219 164.863281 180.753906 163.902344 185.898438 165.722656 C 190.746094 167.4375 194.105469 170.8125 196.621094 175.089844 C 197.945312 177.339844 199.046875 179.726562 200.238281 182.050781 C 200.558594 182.664062 200.859375 183.28125 201.394531 184.347656 C 201.703125 183.449219 201.941406 183.003906 202 182.535156 C 203.148438 173.15625 202.160156 163.996094 198.710938 155.179688 C 194.53125 144.515625 189.402344 134.320312 183.398438 124.550781 C 180.070312 119.132812 176.5 113.894531 172.503906 108.945312 C 172.3125 108.703125 172.214844 108.394531 172 108.003906 Z M 188.429688 208.660156 C 190.792969 207.722656 191.628906 206.160156 191.566406 203.921875 C 191.492188 201.082031 191.699219 198.230469 191.589844 195.390625 C 191.285156 187.21875 187.761719 180.292969 182.808594 174.007812 C 180.96875 171.683594 178.519531 170.058594 175.285156 169.214844 C 174.828125 170.59375 174.21875 171.820312 174.054688 173.101562 C 173.816406 174.96875 173.613281 176.929688 173.929688 178.757812 C 174.507812 182.097656 175.292969 185.429688 176.324219 188.652344 C 178.1875 194.492188 180.882812 199.964844 184.492188 204.949219 C 185.558594 206.414062 186.71875 207.828125 188.429688 208.660156 Z M 188.429688 208.660156 "/>
</g>
</g>
</svg>
