<?xml version="1.0" encoding="UTF-8"?>
<svg xmlns="http://www.w3.org/2000/svg" xmlns:xlink="http://www.w3.org/1999/xlink" width="375pt" height="374.999991pt" viewBox="0 0 375 374.999991" version="1.2">
<defs>
<clipPath id="clip1">
  <path d="M 42 5 L 333.84375 5 L 333.84375 371 L 42 371 Z M 42 5 "/>
</clipPath>
</defs>
<g id="surface1">
<g clip-path="url(#clip1)" clip-rule="nonzero">
<path style=" stroke:none;fill-rule:evenodd;fill:rgb(0%,0%,0%);fill-opacity:1;" d="M 199.886719 156.648438 C 198.875 161.710938 196.40625 167.09375 194.320312 170.894531 C 204.757812 173.617188 212.410156 183.117188 212.410156 194.390625 C 212.410156 203.191406 207.730469 210.917969 200.707031 215.226562 C 217.910156 236.503906 246.753906 276.589844 246.753906 306.101562 C 246.753906 348.277344 220.503906 370.695312 188.121094 370.695312 C 155.738281 370.695312 129.492188 348.277344 129.492188 306.101562 C 129.492188 276.589844 158.332031 236.503906 175.535156 215.226562 C 168.515625 210.917969 163.835938 203.191406 163.835938 194.390625 C 163.835938 183.179688 171.425781 173.746094 181.734375 170.957031 C 179.648438 167.285156 177.179688 162.09375 176.292969 156.648438 C 173.890625 156.140625 171.488281 155.507812 169.085938 154.683594 C 142.964844 146.132812 115.894531 121.5 88.570312 85.59375 C 76.808594 70.140625 65.738281 53.546875 55.746094 37.019531 C 52.265625 31.195312 49.167969 25.808594 46.449219 20.996094 C 44.804688 18.085938 43.664062 15.996094 43.097656 14.855469 C 41.515625 11.878906 42.652344 8.207031 45.625 6.621094 C 48.597656 5.039062 52.265625 6.179688 53.847656 9.15625 C 54.417969 10.230469 55.492188 12.257812 57.074219 15.042969 C 59.667969 19.792969 62.703125 25.050781 66.179688 30.6875 C 75.921875 46.898438 86.738281 63.109375 98.246094 78.246094 C 124.179688 112.316406 149.730469 135.558594 172.816406 143.15625 C 174.523438 143.726562 176.167969 144.171875 177.8125 144.550781 C 179.964844 140.941406 183.757812 139.675781 188.121094 139.675781 C 192.484375 139.675781 196.28125 140.941406 198.429688 144.550781 C 200.074219 144.171875 201.71875 143.726562 203.429688 143.15625 C 226.511719 135.558594 252.066406 112.316406 277.996094 78.246094 C 289.507812 63.109375 300.324219 46.898438 310.0625 30.6875 C 313.542969 25.050781 316.578125 19.792969 319.171875 15.042969 C 320.75 12.257812 321.828125 10.230469 322.394531 9.15625 C 323.976562 6.179688 327.644531 5.039062 330.617188 6.621094 C 333.589844 8.207031 334.730469 11.878906 333.148438 14.855469 C 332.578125 15.996094 331.441406 18.085938 329.796875 20.996094 C 327.078125 25.808594 323.976562 31.195312 320.5 37.019531 C 310.503906 53.546875 299.4375 70.140625 287.671875 85.59375 C 260.351562 121.5 233.28125 146.132812 207.222656 154.683594 C 204.757812 155.507812 202.289062 156.140625 199.886719 156.648438 Z M 175.980469 194.390625 C 175.980469 201.101562 181.417969 206.550781 188.121094 206.550781 C 194.828125 206.550781 200.265625 201.101562 200.265625 194.390625 C 200.265625 187.675781 194.828125 182.230469 188.121094 182.230469 C 181.417969 182.230469 175.980469 187.675781 175.980469 194.390625 Z M 175.980469 194.390625 "/>
</g>
</g>
</svg>
