<?xml version="1.0" encoding="UTF-8"?>
<svg xmlns="http://www.w3.org/2000/svg" xmlns:xlink="http://www.w3.org/1999/xlink" width="375pt" height="374.999991pt" viewBox="0 0 375 374.999991" version="1.2">
<g id="surface1">
<path style=" stroke:none;fill-rule:nonzero;fill:rgb(95.289612%,94.898987%,94.898987%);fill-opacity:1;" d="M 0 187.5 C 0 83.964844 83.964844 0 187.5 0 C 291.035156 0 375 83.964844 375 187.5 C 375 291.035156 291.035156 375 187.5 375 C 83.964844 375 0 291.035156 0 187.5 Z M 0 187.5 "/>
<path style=" stroke:none;fill-rule:evenodd;fill:rgb(10.198975%,50.19989%,67.83905%);fill-opacity:1;" d="M 274.863281 155.984375 C 267.078125 155.984375 260.882812 158.027344 256.195312 159.007812 L 254.761719 170.875 C 257.105469 169.738281 264.585938 167.699219 270.707031 167.472656 C 276.90625 167.320312 280.53125 168.605469 279.246094 173.898438 C 260.882812 173.898438 248.5625 177.675781 246.070312 189.539062 C 242.441406 209.871094 264.738281 209.339844 273.65625 200.421875 L 272.597656 205.335938 L 288.921875 205.335938 L 296.023438 172.988281 C 298.820312 159.234375 286.277344 155.835938 274.863281 155.984375 M 275.921875 189.164062 C 275.015625 193.46875 271.539062 195.359375 267.382812 195.585938 C 263.753906 195.738281 260.503906 192.5625 262.847656 188.785156 C 264.660156 185.609375 269.726562 184.855469 272.824219 184.855469 L 276.828125 184.855469 C 276.449219 186.289062 276.300781 187.652344 275.921875 189.164062 "/>
<path style=" stroke:none;fill-rule:evenodd;fill:rgb(10.198975%,50.19989%,67.83905%);fill-opacity:1;" d="M 309.855469 143.214844 L 296.328125 205.335938 L 312.953125 205.335938 L 326.632812 143.214844 Z M 309.855469 143.214844 "/>
<path style=" stroke:none;fill-rule:evenodd;fill:rgb(10.198975%,50.19989%,67.83905%);fill-opacity:1;" d="M 233.675781 143.363281 L 203.296875 143.363281 L 189.84375 205.261719 L 207.453125 205.261719 L 211.984375 184.777344 L 224.53125 184.777344 C 236.925781 184.777344 247.050781 177.222656 249.773438 164.449219 C 252.949219 150.015625 242.367188 143.363281 233.675781 143.363281 M 233.148438 164.449219 C 232.089844 169.136719 227.328125 172.914062 222.792969 172.914062 L 214.632812 172.914062 L 218.257812 155.984375 L 226.949219 155.984375 C 231.484375 155.984375 234.203125 159.765625 233.148438 164.449219 "/>
<path style=" stroke:none;fill-rule:evenodd;fill:rgb(10.198975%,35.688782%,50.19989%);fill-opacity:1;" d="M 115.78125 155.984375 C 108.070312 155.984375 101.949219 158.027344 97.492188 159.007812 L 96.054688 170.875 C 98.171875 169.738281 105.578125 167.699219 111.625 167.472656 C 117.746094 167.320312 121.296875 168.605469 120.238281 173.898438 C 102.101562 173.898438 89.933594 177.675781 87.441406 189.539062 C 83.886719 209.871094 105.878906 209.339844 114.496094 200.421875 L 113.4375 205.335938 L 129.761719 205.335938 L 136.714844 172.988281 C 139.660156 159.234375 127.117188 155.835938 115.78125 155.984375 M 117.066406 189.164062 C 116.15625 193.46875 112.605469 195.359375 108.449219 195.585938 C 104.898438 195.738281 101.796875 192.5625 104.140625 188.785156 C 105.957031 185.609375 110.941406 184.855469 113.816406 184.855469 L 117.972656 184.855469 C 117.59375 186.289062 117.214844 187.652344 117.066406 189.164062 "/>
<path style=" stroke:none;fill-rule:evenodd;fill:rgb(10.198975%,35.688782%,50.19989%);fill-opacity:1;" d="M 143.894531 156.890625 L 160.21875 156.890625 L 162.863281 185.761719 L 178.808594 156.890625 L 195.585938 156.890625 L 156.890625 225.890625 L 138.601562 225.890625 L 150.542969 205.636719 Z M 143.894531 156.890625 "/>
<path style=" stroke:none;fill-rule:evenodd;fill:rgb(10.198975%,35.688782%,50.19989%);fill-opacity:1;" d="M 75.273438 143.363281 L 44.816406 143.363281 L 31.289062 205.261719 L 49.199219 205.261719 L 53.582031 184.777344 L 66.355469 184.777344 C 78.597656 184.777344 88.800781 177.222656 91.519531 164.449219 C 94.542969 150.015625 84.191406 143.363281 75.273438 143.363281 M 74.667969 164.449219 C 73.609375 169.136719 69 172.914062 64.464844 172.914062 L 56.078125 172.914062 L 59.929688 155.984375 L 68.695312 155.984375 C 73.082031 155.984375 75.953125 159.765625 74.667969 164.449219 "/>
<path style=" stroke:none;fill-rule:nonzero;fill:rgb(10.198975%,35.688782%,50.19989%);fill-opacity:1;" d="M 330.183594 151.222656 L 330.183594 143.894531 L 327.464844 143.894531 L 327.464844 142.910156 L 334.039062 142.910156 L 334.039062 143.894531 L 331.316406 143.894531 L 331.316406 151.222656 Z M 330.183594 151.222656 "/>
<path style=" stroke:none;fill-rule:nonzero;fill:rgb(10.198975%,35.688782%,50.19989%);fill-opacity:1;" d="M 335.171875 151.222656 L 335.171875 142.910156 L 336.835938 142.910156 L 338.800781 148.804688 C 338.949219 149.335938 339.101562 149.789062 339.175781 150.015625 C 339.253906 149.710938 339.40625 149.257812 339.632812 148.65625 L 341.597656 142.910156 L 343.109375 142.910156 L 343.109375 151.222656 L 342.050781 151.222656 L 342.050781 144.269531 L 339.632812 151.222656 L 338.648438 151.222656 L 336.230469 144.121094 L 336.230469 151.222656 Z M 335.171875 151.222656 "/>
</g>
</svg>
